<svg width="148" height="153" viewBox="0 0 148 153" fill="none" xmlns="http://www.w3.org/2000/svg">
<path fill-rule="evenodd" clip-rule="evenodd" d="M-34.9036 55.7298C-34.9428 50.2071 -30.4976 45.6983 -24.9749 45.659L73.1019 44.9624C76.8425 44.9359 80.1552 42.7381 82.4483 39.7827C88.3469 32.18 97.623 27.2479 108.087 27.1736C126.058 27.0459 140.728 41.2935 140.854 58.9965C140.871 61.332 138.224 62.4417 136.353 61.0436L121.77 50.1465C119.049 48.1134 115.482 47.6002 112.299 48.784L104.172 51.8057C101.447 52.819 99.2978 54.9683 98.2845 57.6935L95.6013 64.9098C94.2381 68.5759 95.1375 72.7003 97.9032 75.466L109.934 87.4966C111.346 88.909 110.54 91.2675 108.543 91.2817C98.0009 91.3566 88.5948 86.4848 82.5942 78.8706C80.2597 75.9083 76.8947 73.7231 73.1231 73.7499L-24.7705 74.4452C-30.2932 74.4845 -34.802 70.0392 -34.8412 64.5165L-34.9036 55.7298Z" fill="#008047"/>
<path fill-rule="evenodd" clip-rule="evenodd" d="M-34 50.9438C-34.5924 52.2336 -34.9182 53.6706 -34.9075 55.1836L-34.841 64.5408C-34.8018 70.0635 -30.293 74.5087 -24.7703 74.4695L73.1416 73.7741C76.91 73.7473 80.2729 75.929 82.6074 78.8873C88.6086 86.4919 98.0086 91.3564 108.543 91.2816C110.54 91.2674 111.346 88.9089 109.934 87.4966L97.9032 75.466C95.1375 72.7002 94.2381 68.5758 95.6013 64.9097L95.9395 64H-34V50.9438Z" fill="#015A36"/>
<path fill-rule="evenodd" clip-rule="evenodd" d="M111.005 28.2491C128.669 28.1236 143.09 42.3413 143.216 60.0052C143.237 63.038 139.675 64.1588 137.53 62.0143L125.967 50.4507C123.201 47.6849 119.077 46.7855 115.411 48.1487L108.194 50.8319C105.469 51.8453 103.32 53.9945 102.306 56.7198L99.6232 63.9361C98.26 67.6022 99.1594 71.7265 101.925 74.4923L113.548 86.1149C115.83 88.3968 114.687 92.1928 111.46 92.2157C97.8705 92.3122 86.2006 83.9198 81.4825 72H-9V48H81.6709C86.4429 36.4822 97.7544 28.3432 111.005 28.2491Z" fill="#34B759"/>
<rect x="-14" y="55" width="92" height="10" rx="5" fill="url(#paint0_linear_24_829)"/>
<defs>
<linearGradient id="paint0_linear_24_829" x1="65.5" y1="63.5" x2="65.5" y2="57.5" gradientUnits="userSpaceOnUse">
<stop stop-color="#008047"/>
<stop offset="1" stop-color="#9BF4A6"/>
</linearGradient>
</defs>
</svg>
